<svg width="440" height="306" viewBox="0 0 440 306" fill="none" xmlns="http://www.w3.org/2000/svg">
<g clip-path="url(#clip0_347_153)">
<mask id="mask0_347_153" style="mask-type:luminance" maskUnits="userSpaceOnUse" x="0" y="0" width="440" height="307">
<path d="M439.16 222.243C439.16 99.9914 340.848 0.882568 219.58 0.882568C98.3122 0.882568 0.000244141 99.9929 0.000244141 222.243V306.045H439.113V236.24H439.16V222.242V222.243Z" fill="white"/>
</mask>
<g mask="url(#mask0_347_153)">
<path d="M-446.806 154.206V244.932C-446.806 270.507 -419.316 291.239 -385.403 291.239C-351.49 291.239 -324 270.507 -324 244.932C-324 270.507 -296.509 291.239 -262.596 291.239C-228.684 291.239 -201.193 270.507 -201.193 244.932C-201.193 270.507 -173.703 291.239 -139.79 291.239C-105.877 291.239 -78.3868 270.507 -78.3868 244.932C-78.3868 270.507 -50.8961 291.239 -16.9836 291.239C16.929 291.239 44.4196 270.507 44.4196 244.932C44.4196 270.507 71.9103 291.239 105.823 291.239C139.735 291.239 167.226 270.507 167.226 244.932C167.226 270.507 194.717 291.239 228.629 291.239C262.542 291.239 290.033 270.507 290.033 244.932C290.033 270.507 317.523 291.239 351.436 291.239C385.348 291.239 412.839 270.507 412.839 244.932C412.839 270.507 440.33 291.239 474.242 291.239C508.155 291.239 535.645 270.507 535.645 244.932C535.645 270.507 563.136 291.239 597.049 291.239C630.961 291.239 658.452 270.507 658.452 244.932C658.452 270.507 685.943 291.239 719.855 291.239C753.768 291.239 781.258 270.507 781.258 244.932C781.258 270.507 808.749 291.239 842.661 291.239C876.574 291.239 904.065 270.507 904.065 244.932C904.065 270.507 931.555 291.239 965.468 291.239C999.381 291.239 1026.87 270.507 1026.87 244.932V154.206H-446.806Z" fill="#2151F6"/>
</g>
<mask id="mask1_347_153" style="mask-type:luminance" maskUnits="userSpaceOnUse" x="0" y="0" width="440" height="287">
<path d="M439.159 0H0V286.194H439.159V0Z" fill="white"/>
</mask>
<g mask="url(#mask1_347_153)">
<path d="M219.58 0.881104C340.848 0.881104 439.16 99.9914 439.16 222.242V236.24H0.000488281V222.242C0.000488281 99.99 98.3124 0.881104 219.58 0.881104Z" fill="#2151F6"/>
<path d="M402.842 239.579L367.022 186.605C361.369 178.242 350.041 176.098 341.722 181.815C333.402 187.53 331.242 198.944 336.896 207.305L372.716 260.28C378.369 268.643 389.697 270.785 398.017 265.07C406.336 259.352 408.496 247.94 402.842 239.577V239.579Z" fill="white" stroke="#2151F6" stroke-width="12.5376" stroke-miterlimit="10"/>
<path d="M294.022 222.481C354.957 222.481 404.356 172.682 404.356 111.252C404.356 49.8208 354.959 0.0202637 294.022 0.0202637C233.084 0.0202637 183.686 49.8193 183.686 111.25C183.686 172.681 233.086 222.48 294.022 222.48V222.481Z" fill="#2151F6"/>
<path d="M294.155 207.479C263.61 207.479 233.59 192.776 215.116 165.478C185.456 121.62 196.727 61.6195 240.222 31.7163C261.295 17.2321 286.698 11.8916 311.762 16.6717C336.825 21.4519 358.537 35.7808 372.905 57.0251C387.272 78.2695 392.569 103.879 387.828 129.147C383.085 154.414 368.873 176.303 347.798 190.787C331.385 202.067 312.665 207.48 294.154 207.48L294.155 207.479ZM293.858 32.2243C278.264 32.2243 263.044 36.9217 249.88 45.9725C214.171 70.5135 204.936 119.752 229.268 155.751C253.613 191.739 302.456 201.06 338.164 176.519C355.464 164.638 367.126 146.669 371.024 125.932C374.913 105.195 370.562 84.179 358.775 66.7393C346.988 49.2996 329.165 37.543 308.596 33.6135C303.679 32.6801 298.754 32.2142 293.859 32.2142V32.2243H293.858Z" fill="white"/>
<path d="M289.002 159.515C306.611 159.515 320.885 137.697 320.885 110.784C320.885 83.8712 306.611 62.0535 289.002 62.0535C271.392 62.0535 257.119 83.8712 257.119 110.784C257.119 137.697 271.394 159.515 289.002 159.515Z" fill="white"/>
<path d="M129.024 159.515C111.416 159.515 97.1409 137.697 97.1409 110.784C97.1409 83.8712 111.415 62.0535 129.024 62.0535C146.634 62.0535 160.907 83.8712 160.907 110.784C160.907 137.697 146.634 159.515 129.024 159.515Z" fill="white"/>
<path d="M276.939 146.037C288.93 146.037 298.65 131.182 298.65 112.858C298.65 94.5348 288.931 79.6804 276.939 79.6804C264.948 79.6804 255.228 94.5348 255.228 112.858C255.228 131.182 264.946 146.037 276.939 146.037Z" fill="#2151F6"/>
<path d="M141.088 146.037C129.098 146.037 119.377 131.182 119.377 112.858C119.377 94.5348 129.097 79.6804 141.088 79.6804C153.08 79.6804 162.8 94.5348 162.8 112.858C162.8 131.182 153.08 146.037 141.088 146.037Z" fill="#2151F6"/>
</g>
</g>
<defs>
<clipPath id="clip0_347_153">
<rect width="439.113" height="306" fill="white"/>
</clipPath>
</defs>
</svg>
